<svg width="399" height="315" viewBox="0 0 399 315" fill="none" xmlns="http://www.w3.org/2000/svg">
<path opacity="0.02" d="M96.8202 52.8887L3.33867 52.2921C2.91062 52.2838 2.49025 52.1769 2.11018 51.9795C1.7301 51.782 1.40054 51.4996 1.14707 51.1539C-0.530457 48.7686 -0.36797 46.5639 1.63424 44.54C1.88325 44.2825 2.17915 44.0779 2.50453 43.9382C2.82992 43.7985 3.178 43.7267 3.52808 43.7271L44.1946 43.4561C44.5464 43.4561 44.8947 43.3858 45.2197 43.2496C45.5446 43.1134 45.8399 42.9137 46.0886 42.662C46.3374 42.4103 46.5347 42.1117 46.6693 41.7828C46.8039 41.454 46.8732 41.1015 46.8732 40.7455V3.66512C46.8732 3.23666 46.9764 2.81388 47.1741 2.43194C47.3718 2.05 47.6582 1.71982 48.0096 1.46942C54.1515 -2.94877 55.6125 3.58379 55.6125 8.05619C55.6306 18.79 55.6758 29.5328 55.7479 40.2846C55.7551 40.9988 56.0432 41.6814 56.5499 42.1838C57.0565 42.6863 57.7407 42.9681 58.4536 42.968H96.8742C97.5918 42.968 98.2802 42.6854 98.7876 42.1822C99.295 41.679 99.5799 40.9963 99.5799 40.2846L99.7693 3.31274C99.7703 2.78857 99.9216 2.27649 100.205 1.83868C100.488 1.40087 100.892 1.05604 101.366 0.846049C105.505 -0.970016 108.184 1.27979 108.4 5.64377C108.96 17.1726 109.239 28.7015 109.239 40.2304C109.239 40.9492 109.524 41.6388 110.032 42.1471C110.539 42.6554 111.227 42.9409 111.945 42.9409L263.788 43.0223C264.496 43.0221 265.176 43.3002 265.682 43.7969C266.188 44.2935 266.48 44.9691 266.494 45.6786L267.387 85.7134C267.401 86.4228 267.692 87.0984 268.198 87.5951C268.704 88.0917 269.384 88.3698 270.092 88.3697H308.567C309.285 88.3697 309.973 88.0871 310.48 87.5838C310.988 87.0806 311.273 86.3979 311.273 85.6862C311.363 74.2839 311.399 62.9265 311.381 51.6145C311.354 47.1692 313.113 41.179 318.822 45.2719C319.167 45.5258 319.449 45.856 319.646 46.2368C319.843 46.6175 319.95 47.0388 319.958 47.4676L320.634 130.925C320.642 131.642 320.929 132.327 321.435 132.834C321.941 133.341 322.625 133.629 323.34 133.636L361.382 133.798C361.74 133.802 362.094 133.735 362.426 133.6C362.757 133.465 363.059 133.266 363.313 133.014C363.567 132.762 363.769 132.462 363.906 132.131C364.044 131.801 364.115 131.446 364.115 131.088V47.7929C364.115 47.3644 364.218 46.9416 364.416 46.5597C364.613 46.1778 364.9 45.8476 365.251 45.5972C371.204 41.2603 372.962 47.305 372.935 51.913C372.827 78.2775 372.863 104.642 373.044 131.006C373.051 131.723 373.335 132.409 373.836 132.915C374.337 133.422 375.014 133.71 375.722 133.717L396.34 133.961C396.708 133.963 397.072 134.042 397.409 134.193C397.746 134.345 398.048 134.564 398.297 134.839C398.546 135.114 398.736 135.438 398.855 135.79C398.975 136.143 399.021 136.517 398.991 136.888L398.721 140.114C398.66 140.79 398.348 141.418 397.847 141.875C397.346 142.331 396.692 142.583 396.015 142.581H323.097C322.379 142.581 321.691 142.869 321.183 143.382C320.676 143.896 320.391 144.592 320.391 145.318L320.607 177.574C320.607 178.279 320.881 178.956 321.371 179.462C321.861 179.968 322.529 180.263 323.232 180.284C336.201 180.664 349.261 180.709 362.41 180.42C367.308 180.311 373.693 181.612 369.039 188.199C368.789 188.551 368.46 188.838 368.079 189.036C367.697 189.234 367.275 189.337 366.848 189.337H323.232C322.528 189.337 321.852 189.615 321.347 190.111C320.842 190.607 320.547 191.282 320.526 191.994L319.958 217.419C319.949 217.882 319.822 218.335 319.59 218.734C319.358 219.132 319.028 219.463 318.632 219.695C314.339 222.225 312.148 221.087 312.057 216.28C311.607 192.608 311.354 168.945 311.3 145.291C311.3 144.572 311.015 143.883 310.507 143.374C310 142.866 309.312 142.581 308.594 142.581H270.174C269.461 142.581 268.776 142.862 268.27 143.365C267.763 143.867 267.475 144.55 267.468 145.264L267.143 174.511C267.144 175.102 266.949 175.678 266.586 176.148C266.224 176.619 265.716 176.958 265.141 177.113C259.242 178.631 257.096 175.911 258.701 168.954C259.297 166.352 259.089 158.392 258.079 145.074C258.025 144.394 257.715 143.759 257.214 143.296C256.712 142.834 256.055 142.578 255.373 142.581H208.538C207.82 142.581 207.132 142.295 206.625 141.787C206.117 141.278 205.832 140.589 205.832 139.87V100.649C205.832 99.9435 205.556 99.2659 205.061 98.7599C204.566 98.2538 203.891 97.9591 203.181 97.938L164.625 97.0975C164.265 97.0903 163.907 97.1551 163.573 97.2881C163.238 97.4211 162.933 97.6197 162.676 97.8721C162.419 98.1245 162.215 98.4258 162.076 98.7582C161.937 99.0907 161.865 99.4475 161.865 99.8081V181.206C161.865 181.925 162.15 182.614 162.657 183.123C163.165 183.631 163.853 183.916 164.571 183.916H211.893C212.611 183.916 213.299 184.202 213.806 184.71C214.314 185.218 214.599 185.908 214.599 186.627L214.626 225.957C214.626 226.315 214.697 226.67 214.834 227.001C214.972 227.331 215.174 227.631 215.428 227.883C215.682 228.135 215.983 228.334 216.315 228.469C216.646 228.604 217.001 228.671 217.359 228.667L262.976 228.288C263.694 228.281 264.385 228.562 264.897 229.071C265.41 229.579 265.702 230.272 265.709 230.999V234.116C265.709 234.833 265.429 235.521 264.928 236.032C264.427 236.544 263.746 236.839 263.03 236.853L217.304 237.395C216.591 237.403 215.91 237.691 215.409 238.199C214.907 238.706 214.626 239.392 214.626 240.106V311.041C214.626 311.768 214.334 312.47 213.814 312.993C209.187 317.519 205.778 313.67 205.778 308.574C205.886 285.679 205.877 262.802 205.751 239.943C205.751 239.229 205.47 238.544 204.968 238.036C204.467 237.529 203.785 237.24 203.072 237.233L164.516 236.908C164.159 236.904 163.804 236.972 163.473 237.106C163.141 237.241 162.84 237.44 162.586 237.692C162.332 237.944 162.13 238.244 161.992 238.575C161.855 238.905 161.784 239.26 161.784 239.618L161.919 275.587C161.919 276.233 161.689 276.858 161.27 277.349C155.669 283.99 152.233 277.864 152.341 272.389C152.557 261.601 152.494 250.831 152.151 240.079C152.13 239.374 151.836 238.706 151.331 238.215C150.826 237.724 150.149 237.449 149.446 237.45H102.34C101.622 237.45 100.934 237.164 100.427 236.656C99.9192 236.148 99.6341 235.458 99.6341 234.739V195.436C99.6341 194.717 99.349 194.028 98.8416 193.519C98.3342 193.011 97.646 192.726 96.9284 192.726H55.2879C54.7959 192.725 54.3143 192.59 53.8947 192.337C53.4752 192.084 53.1335 191.721 52.9068 191.289C50.3094 186.383 53.9892 183.943 58.5618 183.943C71.3687 183.962 84.1666 183.916 96.9555 183.808C97.6659 183.808 98.3472 183.522 98.8495 183.014C99.3518 182.506 99.6341 181.816 99.6341 181.097V100.865C99.6344 100.16 99.3605 99.483 98.8705 98.9769C98.3805 98.4709 97.7131 98.1758 97.0097 98.1547C82.9221 97.7391 69.0147 97.6669 55.2879 97.938C50.2012 98.0464 45.9263 94.9562 50.3366 89.9959C50.584 89.7135 50.8873 89.4859 51.2274 89.3272C51.5674 89.1686 51.9367 89.0825 52.3117 89.0744L97.0366 88.1801C97.7495 88.1658 98.4279 87.8701 98.9245 87.3575C99.421 86.8449 99.6955 86.1566 99.6883 85.4424L99.4988 55.5721C99.4988 54.8604 99.2166 54.1778 98.7142 53.6745C98.2119 53.1713 97.5307 52.8887 96.8202 52.8887ZM152.992 54.0931C152.992 53.8867 152.952 53.6821 152.873 53.4912C152.795 53.3004 152.679 53.1269 152.534 52.9807C152.388 52.8345 152.216 52.7186 152.025 52.6392C151.835 52.5599 151.631 52.5188 151.425 52.5185L110.028 52.446C109.612 52.4453 109.213 52.6103 108.918 52.9046C108.623 53.1989 108.457 53.5981 108.456 54.015L108.399 86.7586C108.399 86.9651 108.439 87.1696 108.518 87.3605C108.596 87.5514 108.711 87.7248 108.857 87.871C109.002 88.0173 109.175 88.1332 109.365 88.2125C109.556 88.2918 109.76 88.3329 109.966 88.3333L151.362 88.4057C151.779 88.4064 152.178 88.2414 152.473 87.9471C152.768 87.6529 152.934 87.2536 152.934 86.8367L152.992 54.0931ZM205.946 53.2636C205.947 53.1675 205.928 53.0723 205.892 52.9833C205.855 52.8944 205.802 52.8136 205.734 52.7454C205.667 52.6773 205.586 52.623 205.498 52.586C205.409 52.5489 205.314 52.5297 205.218 52.5294L162.685 52.3808C162.589 52.3805 162.494 52.3989 162.406 52.4354C162.317 52.4719 162.236 52.5255 162.168 52.5932C162.1 52.661 162.046 52.7415 162.009 52.8301C161.972 52.9188 161.953 53.014 161.952 53.1101L161.832 87.5878C161.832 87.6839 161.85 87.7791 161.886 87.868C161.923 87.957 161.976 88.0381 162.044 88.1063C162.112 88.1745 162.192 88.2284 162.281 88.2654C162.369 88.3025 162.464 88.322 162.56 88.3223L205.093 88.4709C205.189 88.4712 205.284 88.4528 205.373 88.4163C205.462 88.3798 205.542 88.3262 205.61 88.2585C205.678 88.1908 205.732 88.1102 205.77 88.0216C205.807 87.9329 205.826 87.8378 205.826 87.7417L205.946 53.2636ZM258.294 53.8803C258.293 53.6881 258.255 53.498 258.181 53.3205C258.108 53.1431 258 52.982 257.864 52.8464C257.728 52.7107 257.567 52.6029 257.389 52.5297C257.212 52.4565 257.022 52.4192 256.83 52.4195L216.082 52.4907C215.695 52.4914 215.323 52.6462 215.05 52.9211C214.777 53.1961 214.623 53.5686 214.624 53.9568L214.682 87.2966C214.682 87.4888 214.72 87.679 214.794 87.8565C214.868 88.0339 214.976 88.1949 215.112 88.3306C215.248 88.4663 215.409 88.574 215.586 88.6473C215.764 88.7205 215.954 88.7578 216.146 88.7574L256.893 88.6863C257.281 88.6856 257.652 88.5308 257.925 88.2558C258.199 87.9809 258.352 87.6083 258.352 87.2202L258.294 53.8803ZM258.651 99.5712C258.652 99.3469 258.609 99.1247 258.525 98.917C258.44 98.7094 258.316 98.5206 258.158 98.3612C258.001 98.2018 257.813 98.0748 257.607 97.9879C257.401 97.901 257.179 97.8558 256.955 97.8546L216.425 97.6422C216.201 97.641 215.979 97.6842 215.772 97.7689C215.565 97.8536 215.376 97.9781 215.217 98.1358C215.058 98.2936 214.931 98.4813 214.844 98.6881C214.758 98.8948 214.712 99.1166 214.711 99.3409L214.541 131.921C214.54 132.145 214.583 132.368 214.667 132.575C214.752 132.783 214.876 132.972 215.034 133.131C215.191 133.29 215.378 133.417 215.585 133.504C215.791 133.591 216.013 133.636 216.236 133.638L256.767 133.85C256.991 133.851 257.213 133.808 257.42 133.724C257.627 133.639 257.816 133.514 257.975 133.356C258.134 133.199 258.261 133.011 258.347 132.804C258.434 132.597 258.479 132.376 258.48 132.151L258.651 99.5712ZM311.441 99.1377C311.442 98.9526 311.406 98.7691 311.336 98.5977C311.267 98.4264 311.164 98.2704 311.034 98.1388C310.904 98.0072 310.749 97.9025 310.579 97.8308C310.409 97.759 310.226 97.7219 310.041 97.7209L268.915 97.5048C268.731 97.5039 268.547 97.5395 268.376 97.6094C268.205 97.6793 268.05 97.7826 267.918 97.9128C267.787 98.043 267.682 98.1978 267.611 98.3684C267.539 98.5391 267.502 98.722 267.501 98.9071L267.327 132.246C267.326 132.431 267.361 132.615 267.431 132.786C267.501 132.958 267.604 133.114 267.734 133.245C267.864 133.377 268.018 133.481 268.189 133.553C268.359 133.625 268.542 133.662 268.726 133.663L309.852 133.879C310.037 133.88 310.22 133.844 310.391 133.774C310.562 133.704 310.718 133.601 310.849 133.471C310.981 133.341 311.085 133.186 311.157 133.016C311.228 132.845 311.266 132.662 311.267 132.477L311.441 99.1377ZM152.838 99.0997C152.839 98.9466 152.809 98.7949 152.751 98.6533C152.693 98.5117 152.608 98.3827 152.5 98.2741C152.393 98.1655 152.265 98.0794 152.124 98.0203C151.983 97.9613 151.832 97.9306 151.679 97.93L109.741 97.7834C109.588 97.7829 109.437 97.8124 109.295 97.8705C109.154 97.9285 109.025 98.0141 108.917 98.1219C108.809 98.2298 108.723 98.3579 108.664 98.4991C108.605 98.6403 108.574 98.7918 108.573 98.9448L108.282 182.646C108.282 182.799 108.311 182.951 108.369 183.092C108.427 183.234 108.512 183.363 108.62 183.472C108.728 183.58 108.856 183.666 108.996 183.725C109.137 183.785 109.289 183.815 109.441 183.816L151.379 183.962C151.532 183.963 151.683 183.933 151.825 183.875C151.966 183.817 152.095 183.732 152.203 183.624C152.311 183.516 152.398 183.388 152.457 183.247C152.516 183.105 152.546 182.954 152.547 182.801L152.838 99.0997ZM152.912 193.496C152.912 193.309 152.838 193.13 152.706 192.998C152.575 192.865 152.396 192.791 152.209 192.79L109.297 192.715C109.111 192.715 108.932 192.789 108.799 192.921C108.667 193.053 108.593 193.232 108.593 193.419L108.533 227.463C108.533 227.65 108.607 227.829 108.739 227.962C108.87 228.094 109.049 228.169 109.235 228.169L152.148 228.244C152.334 228.244 152.513 228.17 152.645 228.038C152.777 227.907 152.852 227.728 152.852 227.541L152.912 193.496ZM205.891 193.968C205.891 193.815 205.862 193.663 205.804 193.522C205.746 193.38 205.661 193.251 205.553 193.143C205.445 193.034 205.317 192.948 205.176 192.889C205.035 192.83 204.884 192.799 204.731 192.798L163.118 192.653C162.965 192.652 162.814 192.682 162.673 192.74C162.531 192.798 162.403 192.883 162.294 192.991C162.186 193.099 162.1 193.228 162.041 193.369C161.982 193.51 161.951 193.661 161.951 193.815L161.833 227.371C161.833 227.524 161.863 227.676 161.921 227.817C161.979 227.959 162.064 228.087 162.171 228.196C162.279 228.305 162.407 228.391 162.548 228.45C162.689 228.509 162.84 228.54 162.993 228.54L204.606 228.686C204.759 228.687 204.91 228.657 205.052 228.599C205.193 228.541 205.322 228.455 205.43 228.348C205.538 228.24 205.625 228.111 205.683 227.97C205.742 227.829 205.773 227.677 205.773 227.524L205.891 193.968Z" fill="black"/>
</svg>
